<?xml version="1.0" encoding="utf-8"?>
<!-- Generator: Adobe Illustrator 24.3.0, SVG Export Plug-In . SVG Version: 6.00 Build 0)  -->
<svg version="1.1" id="Ebene_1" xmlns="http://www.w3.org/2000/svg" xmlns:xlink="http://www.w3.org/1999/xlink" x="0px" y="0px"
	 viewBox="0 0 680.3 137.9" style="enable-background:new 0 0 680.3 137.9;" xml:space="preserve">
<style type="text/css">
	.st0{fill:#73004D;}
</style>
<g>
	<path class="st0" d="M350.7,35V1.8h9.9c3.6,0,6.3,0.7,8.2,2.2c1.9,1.5,2.8,3.6,2.8,6.5c0,1.7-0.5,3.2-1.4,4.5
		c-0.9,1.3-2.2,2.2-3.9,2.7c2,0.4,3.5,1.4,4.7,2.8c1.2,1.5,1.8,3.2,1.8,5.1c0,2.9-1,5.2-2.9,6.9c-1.9,1.6-4.6,2.5-8,2.5H350.7
		L350.7,35z M353.5,16.7h7.7c2.4,0,4.2-0.6,5.5-1.7c1.3-1.1,1.9-2.6,1.9-4.6c0-2.1-0.7-3.7-2-4.7c-1.3-1-3.4-1.5-6.1-1.5h-7.1V16.7
		L353.5,16.7z M353.5,19.1v13.6h8.5c2.4,0,4.3-0.6,5.8-1.8c1.4-1.2,2.1-2.9,2.1-5.1c0-2-0.7-3.7-2-4.9c-1.4-1.2-3.2-1.8-5.6-1.8
		H353.5L353.5,19.1z"/>
	<path class="st0" d="M388.6,35.5c-2.1,0-4-0.5-5.7-1.6c-1.7-1-3-2.5-4-4.3c-1-1.8-1.4-3.9-1.4-6.2v-1c0-2.4,0.5-4.5,1.4-6.4
		c0.9-1.9,2.2-3.4,3.9-4.5c1.7-1.1,3.5-1.6,5.4-1.6c3,0,5.4,1,7.2,3.1c1.8,2,2.7,4.8,2.7,8.4v1.5h-17.8v0.5c0,2.8,0.8,5.1,2.4,7
		c1.6,1.9,3.7,2.8,6.1,2.8c1.5,0,2.8-0.3,3.9-0.8c1.1-0.5,2.2-1.4,3.1-2.6l1.7,1.3C395.4,34,392.4,35.5,388.6,35.5L388.6,35.5z
		 M388.1,12.2c-2.1,0-3.8,0.8-5.2,2.3c-1.4,1.5-2.3,3.5-2.6,6.1h14.9v-0.3c-0.1-2.4-0.8-4.3-2-5.8C391.8,13,390.2,12.2,388.1,12.2
		L388.1,12.2z"/>
	<path class="st0" d="M414.8,12.7c-0.6-0.1-1.2-0.2-1.9-0.2c-1.7,0-3.2,0.5-4.4,1.4c-1.2,1-2,2.3-2.5,4.1V35h-2.7V10.4h2.7l0,3.9
		c1.5-2.9,3.8-4.4,7-4.4c0.8,0,1.4,0.1,1.8,0.3L414.8,12.7L414.8,12.7z"/>
	<polygon class="st0" points="422.2,35 419.5,35 419.5,0 422.2,0 422.2,35 	"/>
	<path class="st0" d="M429.6,3.2c0-0.5,0.2-0.9,0.5-1.3c0.3-0.4,0.8-0.5,1.4-0.5s1,0.2,1.4,0.5c0.3,0.4,0.5,0.8,0.5,1.3
		c0,0.5-0.2,0.9-0.5,1.3C432.5,4.9,432,5,431.5,5s-1-0.2-1.4-0.5C429.7,4.2,429.6,3.7,429.6,3.2L429.6,3.2z M432.8,35h-2.8V10.4h2.8
		V35L432.8,35z"/>
	<path class="st0" d="M442.9,10.4l0.1,4.2c0.9-1.5,2.1-2.7,3.5-3.5c1.4-0.8,2.9-1.2,4.6-1.2c2.7,0,4.7,0.7,6,2.2
		c1.3,1.5,2,3.7,2,6.7V35h-2.7V18.8c0-2.2-0.5-3.8-1.4-4.9c-0.9-1.1-2.4-1.6-4.5-1.6c-1.7,0-3.2,0.5-4.5,1.6
		c-1.3,1.1-2.3,2.5-2.9,4.3V35h-2.7V10.4H442.9L442.9,10.4z"/>
	<path class="st0" d="M363.7,125.2c-0.2,2.2-1,3.9-2.3,5c-1.3,1.2-3.1,1.7-5.3,1.7c-1.5,0-2.9-0.4-4.1-1.2c-1.2-0.8-2.1-1.9-2.7-3.3
		c-0.6-1.4-1-3-1-4.8V120c0-1.8,0.3-3.5,1-4.9c0.6-1.4,1.6-2.5,2.8-3.3c1.2-0.8,2.6-1.2,4.2-1.2c2.2,0,4,0.6,5.3,1.8
		c1.3,1.2,2,2.9,2.2,5H362c-0.4-3.5-2.4-5.3-5.7-5.3c-1.9,0-3.4,0.7-4.5,2.1c-1.1,1.4-1.7,3.4-1.7,5.8v2.5c0,2.4,0.5,4.3,1.6,5.7
		c1.1,1.4,2.6,2.1,4.4,2.1c1.8,0,3.2-0.4,4.1-1.3c0.9-0.9,1.5-2.2,1.7-4H363.7L363.7,125.2z"/>
	<path class="st0" d="M366.7,123.8c0-1.5,0.3-2.8,0.9-4c0.6-1.2,1.4-2.1,2.4-2.8c1.1-0.7,2.2-1,3.6-1c2.1,0,3.7,0.7,5,2.2
		c1.3,1.4,1.9,3.3,1.9,5.7v0.4c0,1.5-0.3,2.8-0.9,4c-0.6,1.2-1.4,2.1-2.4,2.8c-1,0.6-2.2,1-3.6,1c-2,0-3.7-0.7-5-2.2
		c-1.3-1.4-1.9-3.3-1.9-5.7V123.8L366.7,123.8z M368.4,124.2c0,1.8,0.5,3.4,1.4,4.5c1,1.2,2.2,1.8,3.8,1.8c1.5,0,2.8-0.6,3.7-1.8
		c1-1.2,1.4-2.7,1.4-4.7v-0.3c0-1.2-0.2-2.3-0.7-3.2c-0.4-1-1.1-1.7-1.8-2.3c-0.8-0.5-1.7-0.8-2.7-0.8c-1.5,0-2.8,0.6-3.7,1.8
		c-1,1.2-1.4,2.8-1.4,4.7V124.2L368.4,124.2z"/>
	<path class="st0" d="M385.6,116.3l0.1,2.6c0.6-1,1.3-1.7,2.2-2.2c0.9-0.5,1.8-0.7,2.9-0.7c1.7,0,2.9,0.5,3.7,1.4
		c0.8,0.9,1.2,2.3,1.2,4.2v10.1h-1.7v-10.1c0-1.4-0.3-2.4-0.9-3.1c-0.6-0.7-1.5-1-2.8-1c-1.1,0-2,0.3-2.8,1
		c-0.8,0.7-1.4,1.6-1.8,2.7v10.6H384v-15.4H385.6L385.6,116.3z"/>
	<path class="st0" d="M401.6,116.3l0.1,2.6c0.6-1,1.3-1.7,2.2-2.2c0.9-0.5,1.8-0.7,2.9-0.7c1.7,0,2.9,0.5,3.7,1.4
		c0.8,0.9,1.2,2.3,1.2,4.2v10.1h-1.7v-10.1c0-1.4-0.3-2.4-0.9-3.1c-0.6-0.7-1.5-1-2.8-1c-1.1,0-2,0.3-2.8,1
		c-0.8,0.7-1.4,1.6-1.8,2.7v10.6H400v-15.4H401.6L401.6,116.3z"/>
	<path class="st0" d="M422,132c-1.3,0-2.5-0.3-3.6-1c-1.1-0.6-1.9-1.5-2.5-2.7c-0.6-1.2-0.9-2.4-0.9-3.9v-0.6c0-1.5,0.3-2.8,0.9-4
		c0.6-1.2,1.4-2.1,2.4-2.8c1-0.7,2.1-1,3.3-1c1.9,0,3.4,0.6,4.5,1.9c1.1,1.3,1.6,3,1.6,5.2v1h-11v0.3c0,1.7,0.5,3.2,1.5,4.4
		c1,1.2,2.3,1.7,3.8,1.7c0.9,0,1.7-0.2,2.4-0.5c0.7-0.3,1.3-0.9,1.9-1.6l1.1,0.8C426.2,131.1,424.4,132,422,132L422,132z
		 M421.7,117.5c-1.3,0-2.4,0.5-3.2,1.4c-0.9,0.9-1.4,2.2-1.6,3.8h9.3v-0.2c0-1.5-0.5-2.7-1.3-3.6C424,117.9,423,117.5,421.7,117.5
		L421.7,117.5z"/>
	<path class="st0" d="M436.8,130.6c1.2,0,2.2-0.3,3-1c0.8-0.7,1.2-1.5,1.3-2.6h1.6c0,0.9-0.3,1.8-0.9,2.6c-0.5,0.8-1.3,1.4-2.2,1.8
		c-0.9,0.4-1.9,0.7-2.9,0.7c-2,0-3.6-0.7-4.8-2.1c-1.2-1.4-1.8-3.3-1.8-5.7v-0.5c0-1.5,0.3-2.9,0.8-4c0.5-1.2,1.3-2.1,2.3-2.7
		c1-0.6,2.2-1,3.5-1c1.7,0,3.1,0.5,4.2,1.5s1.7,2.3,1.8,4h-1.6c-0.1-1.2-0.5-2.2-1.3-2.9c-0.8-0.7-1.8-1.1-3-1.1
		c-1.5,0-2.7,0.6-3.6,1.7c-0.9,1.1-1.3,2.7-1.3,4.7v0.5c0,2,0.4,3.5,1.3,4.6C434.1,130,435.3,130.6,436.8,130.6L436.8,130.6z"/>
	<path class="st0" d="M448.8,112.3v4h3.2v1.4h-3.2V128c0,0.9,0.2,1.5,0.5,1.9c0.3,0.4,0.8,0.6,1.5,0.6c0.3,0,0.7,0,1.4-0.1l0.1,1.4
		c-0.4,0.2-1.1,0.2-1.8,0.2c-1.2,0-2-0.3-2.6-1c-0.5-0.7-0.8-1.7-0.8-3v-10.3h-2.8v-1.4h2.8v-4H448.8L448.8,112.3z"/>
	<path class="st0" d="M455.5,111.8c0-0.3,0.1-0.6,0.3-0.8c0.2-0.2,0.5-0.3,0.9-0.3c0.4,0,0.6,0.1,0.9,0.3c0.2,0.2,0.3,0.5,0.3,0.8
		c0,0.3-0.1,0.6-0.3,0.8c-0.2,0.2-0.5,0.3-0.9,0.3c-0.4,0-0.6-0.1-0.9-0.3C455.6,112.4,455.5,112.2,455.5,111.8L455.5,111.8z
		 M457.5,131.7h-1.7v-15.4h1.7V131.7L457.5,131.7z"/>
	<path class="st0" d="M463.7,116.3l0.1,2.6c0.6-1,1.3-1.7,2.2-2.2c0.9-0.5,1.8-0.7,2.9-0.7c1.7,0,2.9,0.5,3.7,1.4
		c0.8,0.9,1.2,2.3,1.2,4.2v10.1H472v-10.1c0-1.4-0.3-2.4-0.9-3.1c-0.6-0.7-1.5-1-2.8-1c-1.1,0-2,0.3-2.8,1c-0.8,0.7-1.4,1.6-1.8,2.7
		v10.6h-1.7v-15.4H463.7L463.7,116.3z"/>
	<path class="st0" d="M477.5,123.9c0-2.4,0.5-4.3,1.6-5.7c1.1-1.4,2.5-2.1,4.4-2.1c2.1,0,3.7,0.8,4.8,2.5l0.1-2.2h1.6v15.1
		c0,2-0.6,3.6-1.7,4.7c-1.1,1.2-2.6,1.7-4.5,1.7c-1.1,0-2.1-0.2-3.1-0.7c-1-0.5-1.7-1.1-2.3-1.9l1-1c1.2,1.5,2.6,2.2,4.3,2.2
		c1.4,0,2.5-0.4,3.3-1.3c0.8-0.8,1.2-2,1.2-3.5v-1.9c-1.1,1.5-2.7,2.3-4.8,2.3c-1.8,0-3.2-0.7-4.3-2.1c-1.1-1.4-1.6-3.4-1.6-5.8
		V123.9L477.5,123.9z M479.2,124.2c0,2,0.4,3.5,1.2,4.7c0.8,1.1,1.9,1.7,3.3,1.7c2.1,0,3.6-0.9,4.5-2.8v-7.2c-0.4-1-1-1.7-1.7-2.3
		c-0.8-0.5-1.7-0.8-2.7-0.8c-1.4,0-2.6,0.6-3.4,1.7C479.6,120.3,479.2,122,479.2,124.2L479.2,124.2z"/>
	<path class="st0" d="M501.8,131.7V111h5.8c1.7,0,3.2,0.4,4.6,1.2c1.3,0.8,2.4,1.9,3.2,3.3c0.8,1.4,1.1,3.1,1.1,4.9v1.9
		c0,1.9-0.4,3.5-1.1,4.9c-0.8,1.4-1.8,2.5-3.2,3.3c-1.4,0.8-2.9,1.2-4.7,1.2H501.8L501.8,131.7z M503.6,112.4v17.8h3.9
		c2.2,0,3.9-0.7,5.3-2.2c1.3-1.5,2-3.4,2-5.9v-1.8c0-2.4-0.7-4.3-2-5.7c-1.3-1.4-3-2.2-5.1-2.2H503.6L503.6,112.4z"/>
	<path class="st0" d="M520.5,111.8c0-0.3,0.1-0.6,0.3-0.8c0.2-0.2,0.5-0.3,0.9-0.3c0.4,0,0.6,0.1,0.9,0.3c0.2,0.2,0.3,0.5,0.3,0.8
		c0,0.3-0.1,0.6-0.3,0.8c-0.2,0.2-0.5,0.3-0.9,0.3c-0.4,0-0.6-0.1-0.9-0.3C520.6,112.4,520.5,112.2,520.5,111.8L520.5,111.8z
		 M522.5,131.7h-1.7v-15.4h1.7V131.7L522.5,131.7z"/>
	<path class="st0" d="M526.4,123.9c0-2.4,0.5-4.3,1.6-5.7c1.1-1.4,2.5-2.1,4.4-2.1c2.1,0,3.7,0.8,4.8,2.5l0.1-2.2h1.6v15.1
		c0,2-0.6,3.6-1.7,4.7c-1.1,1.2-2.6,1.7-4.5,1.7c-1.1,0-2.1-0.2-3.1-0.7c-1-0.5-1.7-1.1-2.3-1.9l1-1c1.2,1.5,2.6,2.2,4.3,2.2
		c1.4,0,2.5-0.4,3.3-1.3c0.8-0.8,1.2-2,1.2-3.5v-1.9c-1.1,1.5-2.7,2.3-4.8,2.3c-1.8,0-3.2-0.7-4.3-2.1c-1.1-1.4-1.6-3.4-1.6-5.8
		V123.9L526.4,123.9z M528.2,124.2c0,2,0.4,3.5,1.2,4.7c0.8,1.1,1.9,1.7,3.3,1.7c2.1,0,3.6-0.9,4.5-2.8v-7.2c-0.4-1-1-1.7-1.7-2.3
		c-0.8-0.5-1.7-0.8-2.7-0.8c-1.4,0-2.6,0.6-3.4,1.7C528.5,120.3,528.2,122,528.2,124.2L528.2,124.2z"/>
	<path class="st0" d="M543.2,111.8c0-0.3,0.1-0.6,0.3-0.8c0.2-0.2,0.5-0.3,0.9-0.3c0.4,0,0.7,0.1,0.9,0.3c0.2,0.2,0.3,0.5,0.3,0.8
		c0,0.3-0.1,0.6-0.3,0.8c-0.2,0.2-0.5,0.3-0.9,0.3c-0.4,0-0.6-0.1-0.9-0.3C543.3,112.4,543.2,112.2,543.2,111.8L543.2,111.8z
		 M545.2,131.7h-1.7v-15.4h1.7V131.7L545.2,131.7z"/>
	<path class="st0" d="M552.5,112.3v4h3.2v1.4h-3.2V128c0,0.9,0.2,1.5,0.5,1.9c0.3,0.4,0.8,0.6,1.5,0.6c0.3,0,0.7,0,1.4-0.1l0.1,1.4
		c-0.4,0.2-1.1,0.2-1.8,0.2c-1.2,0-2-0.3-2.6-1c-0.5-0.7-0.8-1.7-0.8-3v-10.3H548v-1.4h2.8v-4H552.5L552.5,112.3z"/>
	<path class="st0" d="M569,131.7c-0.2-0.5-0.3-1.2-0.3-2.2c-0.6,0.8-1.4,1.4-2.3,1.8c-0.9,0.4-1.9,0.6-2.9,0.6
		c-1.5,0-2.7-0.4-3.6-1.2c-0.9-0.8-1.4-1.9-1.4-3.1c0-1.5,0.6-2.7,1.9-3.6c1.2-0.9,3-1.3,5.2-1.3h3.1V121c0-1.1-0.3-2-1-2.6
		c-0.7-0.6-1.7-0.9-3-0.9c-1.2,0-2.2,0.3-3,0.9c-0.8,0.6-1.2,1.3-1.2,2.2l-1.7,0c0-1.2,0.6-2.3,1.7-3.2c1.1-0.9,2.5-1.3,4.2-1.3
		c1.7,0,3.1,0.4,4.1,1.3c1,0.9,1.5,2.1,1.5,3.6v7.3c0,1.5,0.2,2.6,0.5,3.4v0.2H569L569,131.7z M563.6,130.5c1.1,0,2.2-0.3,3.1-0.8
		c0.9-0.6,1.6-1.3,2-2.2v-3.4h-3.1c-1.7,0-3,0.3-4,0.9c-1,0.6-1.4,1.4-1.4,2.5c0,0.9,0.3,1.6,1,2.2
		C561.8,130.2,562.6,130.5,563.6,130.5L563.6,130.5z"/>
	<polygon class="st0" points="576.8,131.7 575.1,131.7 575.1,109.8 576.8,109.8 576.8,131.7 	"/>
	<polygon class="st0" points="604.3,131.7 602.5,131.7 602.5,121.8 590.7,121.8 590.7,131.7 588.9,131.7 588.9,111 590.7,111 
		590.7,120.3 602.5,120.3 602.5,111 604.3,111 604.3,131.7 	"/>
	<path class="st0" d="M615.2,132c-1.3,0-2.5-0.3-3.6-1c-1.1-0.6-1.9-1.5-2.5-2.7c-0.6-1.2-0.9-2.4-0.9-3.9v-0.6c0-1.5,0.3-2.8,0.9-4
		c0.6-1.2,1.4-2.1,2.4-2.8c1-0.7,2.1-1,3.3-1c1.9,0,3.4,0.6,4.5,1.9c1.1,1.3,1.6,3,1.6,5.2v1h-11v0.3c0,1.7,0.5,3.2,1.5,4.4
		c1,1.2,2.3,1.7,3.8,1.7c0.9,0,1.7-0.2,2.4-0.5c0.7-0.3,1.3-0.9,1.9-1.6l1.1,0.8C619.4,131.1,617.5,132,615.2,132L615.2,132z
		 M614.8,117.5c-1.3,0-2.4,0.5-3.2,1.4c-0.9,0.9-1.4,2.2-1.6,3.8h9.3v-0.2c0-1.5-0.5-2.7-1.3-3.6
		C617.2,117.9,616.1,117.5,614.8,117.5L614.8,117.5z"/>
	<path class="st0" d="M634,131.7c-0.2-0.5-0.3-1.2-0.3-2.2c-0.6,0.8-1.4,1.4-2.3,1.8c-0.9,0.4-1.9,0.6-2.9,0.6
		c-1.5,0-2.7-0.4-3.6-1.2c-0.9-0.8-1.4-1.9-1.4-3.1c0-1.5,0.6-2.7,1.9-3.6c1.2-0.9,3-1.3,5.2-1.3h3.1V121c0-1.1-0.3-2-1-2.6
		s-1.7-0.9-3-0.9c-1.2,0-2.2,0.3-3,0.9c-0.8,0.6-1.2,1.3-1.2,2.2l-1.7,0c0-1.2,0.6-2.3,1.7-3.2c1.1-0.9,2.5-1.3,4.2-1.3
		c1.7,0,3.1,0.4,4.1,1.3c1,0.9,1.5,2.1,1.5,3.6v7.3c0,1.5,0.2,2.6,0.5,3.4v0.2H634L634,131.7z M628.6,130.5c1.1,0,2.2-0.3,3.1-0.8
		c0.9-0.6,1.6-1.3,2-2.2v-3.4h-3.1c-1.7,0-3,0.3-4,0.9c-1,0.6-1.4,1.4-1.4,2.5c0,0.9,0.3,1.6,1,2.2
		C626.8,130.2,627.6,130.5,628.6,130.5L628.6,130.5z"/>
	<polygon class="st0" points="641.8,131.7 640.1,131.7 640.1,109.8 641.8,109.8 641.8,131.7 	"/>
	<path class="st0" d="M649.1,112.3v4h3.2v1.4h-3.2V128c0,0.9,0.2,1.5,0.5,1.9c0.3,0.4,0.8,0.6,1.5,0.6c0.3,0,0.7,0,1.4-0.1l0.1,1.4
		c-0.4,0.2-1.1,0.2-1.8,0.2c-1.2,0-2-0.3-2.6-1c-0.5-0.7-0.8-1.7-0.8-3v-10.3h-2.8v-1.4h2.8v-4H649.1L649.1,112.3z"/>
	<path class="st0" d="M657.5,118.9c0.6-0.9,1.3-1.6,2.2-2.1c0.9-0.5,1.8-0.8,2.9-0.8c1.7,0,2.9,0.5,3.7,1.4c0.8,0.9,1.2,2.3,1.2,4.2
		v10.1h-1.7v-10.1c0-1.4-0.3-2.4-0.9-3.1c-0.6-0.7-1.5-1-2.8-1c-1.1,0-2,0.3-2.8,1c-0.8,0.7-1.4,1.6-1.8,2.7v10.6h-1.7v-21.9h1.7
		V118.9L657.5,118.9z"/>
	<path class="st0" d="M66.3,35.2c0-5.8-0.6-12.4-4.9-20.2C54.6,2.7,40.9,2.1,33.1,2C25.9,1.8,6.3,2,1.7,2C0.8,2,0.1,2.6,0.1,3.5
		c0,0-0.1,63.9-0.1,85.1c0,0.8,0.7,1.5,1.5,1.5c1.9,0,27.4,0.1,32,0c12.6-0.3,20.8-3.4,26.8-11.5c5.3-7.2,5.9-16.7,5.9-23.2V35.2
		L66.3,35.2z M50.5,53c0,6.5-0.1,12.8-4.1,17.5c-4,4.8-10.8,5.2-16.3,5.2c-3.7,0-14.2,0-14.2,0V16.4c0,0,7.4,0,13.6,0
		c5.1,0,13.1-0.2,17.9,6.6c1.5,2.1,3.2,4.5,3.2,13.6C50.5,41.5,50.5,53,50.5,53L50.5,53z"/>
	<path class="st0" d="M93.7,90.1V16.3h33.1c4,0,14.6-0.2,19.1,3.9c4.5,4.1,4.4,13.3,4.4,19.4v50.5h15.8c0,0,0-49,0-52.3
		c0-6.8,0-19-6.9-26.9c-9-10.2-24.2-9.1-33.2-9.1c-5.1,0-45.9,0-45.9,0c-1.2,0-2.1,1-2.1,2.2v86.1H93.7L93.7,90.1z"/>
	<path class="st0" d="M239.9,16.3h-46.2v36c0,4-0.2,14.6,3.9,19.1c4.1,4.5,13.3,4.2,19.4,4.4c6.1,0.2,22.9,0,22.9,0v14.3
		c0,0-22.6,0-25.9,0c-7-0.2-19,0-26.9-6.9c-10.2-9-9.1-24.2-9.1-33.1c0-5.1,0-45.9,0-45.9c0-1.2,1-2.1,2.2-2.1h59.8V16.3L239.9,16.3
		z"/>
	<path class="st0" d="M317.5,23.9c0-6.3-0.6-11-3.7-15.1c-2.9-3.9-7.5-6.9-15-6.9c-1.9,0-8,0-14.1,0c-6.1,0-12.2,0-14.1,0
		c-7.5,0-12.1,3-15,6.9c-3,4.1-3.7,8.7-3.7,15.1l-0.6,66.2H267l0.3-30.9H302l0.3,30.9h15.8L317.5,23.9L317.5,23.9z M267.4,44.6
		l0.2-20c0-2.2-0.1-5.1,1.1-6.6c1.1-1.3,2.5-1.5,4.6-1.6c2.9-0.2,7.2-0.1,11.4-0.2c4.2,0,8.3,0,11.2,0.2c2.1,0.1,3.5,0.3,4.6,1.6
		c1.3,1.5,1.1,4.4,1.1,6.6l0.2,20H267.4L267.4,44.6z"/>
	<path class="st0" d="M208.2,37.4c0,0,0,8,0,10.6c0,2.1,1.7,3.7,3.7,3.7c6.3,0,25.2,0,25.2,0V37.4H208.2L208.2,37.4z"/>
	<path class="st0" d="M129.6,35.8c0-2.1-1.7-3.7-3.7-3.7c-2.8,0-11.4,0-11.4,0v58h15.1C129.6,90.1,129.6,49.4,129.6,35.8L129.6,35.8
		z"/>
	<path class="st0" d="M367.7,87.7H352l8.3-9.4c2.2-2.5,3.7-4.5,4.6-6.2c0.9-1.7,1.3-3.2,1.3-4.6c0-2.5-0.8-4.4-2.3-5.9
		c-1.5-1.4-3.7-2.2-6.4-2.2c-1.8,0-3.4,0.4-4.8,1.2c-1.4,0.8-2.5,1.9-3.2,3.3c-0.8,1.4-1.1,2.9-1.1,4.6h2.4c0-2.1,0.6-3.7,1.9-5
		c1.2-1.3,2.9-1.9,4.9-1.9c1.9,0,3.5,0.6,4.6,1.7c1.1,1.1,1.7,2.6,1.7,4.5c0,1.2-0.3,2.4-1,3.7c-0.7,1.3-1.8,2.9-3.5,4.8l-10.2,11.6
		v1.9h18.7V87.7L367.7,87.7z M385.2,59.6c-4.5,0.1-7.9,1.5-10.4,4.5c-2.4,2.9-3.7,7.1-3.7,12.4V79c0,3.3,0.9,6,2.7,8s4.1,3.1,7,3.1
		c1.7,0,3.3-0.4,4.6-1.3c1.4-0.9,2.4-2.1,3.1-3.6c0.7-1.6,1.1-3.3,1.1-5.3c0-2.9-0.8-5.3-2.3-7.1c-1.6-1.8-3.6-2.7-6.3-2.7
		c-1.6,0-3,0.3-4.3,0.9c-1.3,0.6-2.3,1.5-3.1,2.6c0.2-3.7,1.4-6.7,3.4-8.8c2.1-2.1,4.9-3.2,8.4-3.2h0.3v-2.1H385.2L385.2,59.6z
		 M385.5,74.4c1.2,1.4,1.8,3.3,1.8,5.7c0,2.3-0.6,4.2-1.8,5.7c-1.2,1.5-2.7,2.3-4.6,2.3c-2.1,0-3.9-0.8-5.2-2.5
		c-1.3-1.6-2-3.8-2-6.4v-2.1c0.5-1.4,1.4-2.6,2.7-3.5c1.3-0.9,2.8-1.4,4.4-1.4C382.7,72.2,384.3,73,385.5,74.4L385.5,74.4z
		 M395.7,89.4c0.3,0.3,0.7,0.5,1.3,0.5c0.5,0,1-0.2,1.3-0.5c0.3-0.3,0.5-0.7,0.5-1.2s-0.2-0.9-0.5-1.2s-0.7-0.5-1.3-0.5
		c-0.5,0-1,0.2-1.3,0.5s-0.5,0.7-0.5,1.2S395.4,89.1,395.7,89.4L395.7,89.4z M423.8,73.6h-20.6v2.1h20.6V73.6L423.8,73.6z
		 M449.7,87.7H434l8.3-9.4c2.2-2.5,3.7-4.5,4.6-6.2c0.9-1.7,1.3-3.2,1.3-4.6c0-2.5-0.8-4.4-2.3-5.9c-1.5-1.4-3.7-2.2-6.4-2.2
		c-1.8,0-3.4,0.4-4.8,1.2c-1.4,0.8-2.5,1.9-3.2,3.3c-0.8,1.4-1.1,2.9-1.1,4.6h2.4c0-2.1,0.6-3.7,1.9-5c1.2-1.3,2.9-1.9,4.9-1.9
		c1.9,0,3.5,0.6,4.6,1.7c1.1,1.1,1.7,2.6,1.7,4.5c0,1.2-0.3,2.4-1,3.7c-0.7,1.3-1.8,2.9-3.5,4.8L431,87.8v1.9h18.7V87.7L449.7,87.7z
		 M469.1,61.7c-1.6-1.5-3.7-2.2-6.4-2.2c-2.6,0-4.7,0.7-6.3,2.2c-1.6,1.5-2.4,3.4-2.4,5.9c0,1.5,0.4,2.9,1.3,4.2
		c0.9,1.2,2.1,2.1,3.5,2.7c-1.7,0.6-3.1,1.5-4.1,2.9c-1,1.3-1.5,2.8-1.5,4.5c0,2.6,0.9,4.6,2.6,6.1c1.7,1.5,4,2.2,6.9,2.2
		c2.9,0,5.2-0.8,6.9-2.2c1.7-1.5,2.6-3.5,2.6-6.1c0-1.7-0.5-3.2-1.6-4.6c-1-1.3-2.4-2.3-4.1-2.9c1.5-0.6,2.7-1.5,3.6-2.7
		c0.9-1.2,1.4-2.6,1.4-4.2C471.5,65.1,470.7,63.1,469.1,61.7L469.1,61.7z M467.9,86.4c-1.3,1.1-3,1.7-5.1,1.7
		c-2.2,0-3.9-0.6-5.2-1.7c-1.3-1.1-1.9-2.6-1.9-4.5c0-1.9,0.7-3.4,2-4.6c1.3-1.2,3-1.8,5.1-1.8c2.1,0,3.8,0.6,5.1,1.8
		c1.3,1.2,2,2.7,2,4.6C469.8,83.7,469.2,85.3,467.9,86.4L467.9,86.4z M467.3,71.7c-1.2,1.1-2.7,1.6-4.5,1.6c-1.9,0-3.4-0.5-4.5-1.6
		c-1.2-1.1-1.7-2.5-1.7-4.2c0-1.8,0.6-3.2,1.7-4.3c1.2-1.1,2.7-1.7,4.5-1.7c1.8,0,3.3,0.6,4.5,1.7c1.2,1.1,1.8,2.6,1.8,4.3
		C469.1,69.3,468.5,70.7,467.3,71.7L467.3,71.7z M477.9,89.4c0.3,0.3,0.7,0.5,1.3,0.5c0.5,0,1-0.2,1.3-0.5c0.3-0.3,0.5-0.7,0.5-1.2
		s-0.2-0.9-0.5-1.2c-0.3-0.3-0.7-0.5-1.3-0.5c-0.5,0-1,0.2-1.3,0.5c-0.3,0.3-0.5,0.7-0.5,1.2S477.6,89.1,477.9,89.4L477.9,89.4z
		 M518.6,89.7h2.6l-11.3-29.9h-2.4l-11.3,29.9h2.6l3.1-8.4h13.6L518.6,89.7L518.6,89.7z M508.7,62.9l6,16.3h-12L508.7,62.9
		L508.7,62.9z M542.9,78.5c0-3.6-0.8-6.4-2.3-8.4c-1.5-2-3.6-3-6.3-3c-3,0-5.4,1.2-7,3.6l-0.1-3.1H525v30.7h2.4V86.9
		c1.6,2.1,3.9,3.2,7,3.2c2.6,0,4.6-1,6.2-3c1.5-2,2.3-4.8,2.3-8.2V78.5L542.9,78.5z M538.7,85.6c-1.2,1.6-2.8,2.5-4.8,2.5
		c-1.5,0-2.8-0.3-3.9-1c-1.1-0.7-1.9-1.6-2.5-2.9V73.5c0.6-1.4,1.4-2.4,2.5-3.2c1.1-0.7,2.4-1.1,3.9-1.1c2.1,0,3.7,0.8,4.9,2.5
		c1.2,1.6,1.7,3.9,1.7,6.7C540.4,81.6,539.8,84,538.7,85.6L538.7,85.6z M558.6,67.4c-0.4-0.2-0.9-0.3-1.6-0.3c-2.9,0-5,1.3-6.3,3.9
		l0-3.5h-2.4v22.2h2.4V74.5c0.5-1.6,1.2-2.9,2.3-3.7c1.1-0.9,2.4-1.3,3.9-1.3c0.6,0,1.1,0,1.7,0.1L558.6,67.4L558.6,67.4z
		 M565.2,67.5h-2.5v22.2h2.5V67.5L565.2,67.5z M562.7,62.3c0.3,0.3,0.7,0.5,1.2,0.5c0.5,0,0.9-0.2,1.2-0.5c0.3-0.3,0.5-0.7,0.5-1.2
		s-0.2-0.9-0.5-1.2c-0.3-0.3-0.7-0.5-1.2-0.5c-0.5,0-0.9,0.2-1.2,0.5c-0.3,0.3-0.5,0.7-0.5,1.2S562.4,62,562.7,62.3L562.7,62.3z
		 M574.6,58.2h-2.5v31.5h2.5V58.2L574.6,58.2z M609.8,87.7h-15.7l8.3-9.4c2.2-2.5,3.7-4.5,4.6-6.2c0.9-1.7,1.3-3.2,1.3-4.6
		c0-2.5-0.8-4.4-2.3-5.9c-1.5-1.4-3.7-2.2-6.4-2.2c-1.8,0-3.4,0.4-4.8,1.2c-1.4,0.8-2.5,1.9-3.2,3.3c-0.8,1.4-1.1,2.9-1.1,4.6h2.4
		c0-2.1,0.6-3.7,1.9-5c1.2-1.3,2.9-1.9,4.9-1.9c1.9,0,3.5,0.6,4.6,1.7c1.1,1.1,1.7,2.6,1.7,4.5c0,1.2-0.3,2.4-1,3.7
		c-0.7,1.3-1.8,2.9-3.5,4.8l-10.2,11.6v1.9h18.7V87.7L609.8,87.7z M633.9,71.8c-0.1-4.1-0.9-7.1-2.4-9.2c-1.6-2.1-3.8-3.1-6.8-3.1
		c-3,0-5.3,1.1-6.8,3.2c-1.6,2.2-2.3,5.3-2.3,9.5v5.4c0,4.1,0.8,7.2,2.4,9.3c1.6,2.1,3.8,3.2,6.8,3.2c3,0,5.3-1.1,6.8-3.3
		c1.5-2.2,2.3-5.4,2.3-9.6V71.8L633.9,71.8z M631.5,77.7c0,3.4-0.6,6-1.7,7.8c-1.1,1.8-2.8,2.6-5,2.6c-2.2,0-3.9-0.9-5-2.7
		c-1.2-1.8-1.7-4.4-1.7-7.8v-5.9c0-3.3,0.6-5.9,1.7-7.6c1.1-1.7,2.8-2.6,5-2.6c2.3,0,3.9,0.9,5.1,2.6c1.1,1.8,1.7,4.3,1.7,7.8V77.7
		L631.5,77.7z M656.6,87.7h-15.7l8.3-9.4c2.2-2.5,3.7-4.5,4.6-6.2c0.9-1.7,1.3-3.2,1.3-4.6c0-2.5-0.8-4.4-2.3-5.9
		c-1.5-1.4-3.7-2.2-6.4-2.2c-1.8,0-3.4,0.4-4.8,1.2c-1.4,0.8-2.5,1.9-3.2,3.3c-0.8,1.4-1.1,2.9-1.1,4.6h2.4c0-2.1,0.6-3.7,1.9-5
		c1.2-1.3,2.9-1.9,4.9-1.9c1.9,0,3.5,0.6,4.6,1.7c1.1,1.1,1.7,2.6,1.7,4.5c0,1.2-0.3,2.4-1,3.7c-0.7,1.3-1.8,2.9-3.5,4.8l-10.2,11.6
		v1.9h18.7V87.7L656.6,87.7z M680.3,87.7h-15.7l8.3-9.4c2.2-2.5,3.7-4.5,4.6-6.2c0.9-1.7,1.3-3.2,1.3-4.6c0-2.5-0.8-4.4-2.3-5.9
		c-1.5-1.4-3.7-2.2-6.4-2.2c-1.8,0-3.4,0.4-4.8,1.2c-1.4,0.8-2.5,1.9-3.2,3.3c-0.8,1.4-1.1,2.9-1.1,4.6h2.4c0-2.1,0.6-3.7,1.9-5
		c1.2-1.3,2.9-1.9,4.9-1.9c1.9,0,3.5,0.6,4.6,1.7c1.1,1.1,1.7,2.6,1.7,4.5c0,1.2-0.3,2.4-1,3.7c-0.7,1.3-1.8,2.9-3.5,4.8l-10.2,11.6
		v1.9h18.7V87.7L680.3,87.7z"/>
</g>
</svg>
