<?xml version="1.0" encoding="utf-8"?>
<!-- Generator: Adobe Illustrator 19.0.0, SVG Export Plug-In . SVG Version: 6.00 Build 0)  -->
<svg version="1.1" id="layer" xmlns="http://www.w3.org/2000/svg" xmlns:xlink="http://www.w3.org/1999/xlink" x="0px" y="0px"
	 viewBox="-153 -46 652 652" style="enable-background:new -153 -46 652 652;" xml:space="preserve">
<style type="text/css">
	.st0{fill:#5FA124;}
	.st1{fill:#FFFFFF;}
	.st2{fill:#717071;}
	.st3{fill:none;stroke:#717071;stroke-width:1.3424;}
	.st4{fill:#9E9E9F;}
</style>
<g>
	<path class="st0" d="M469.2,331v-36.3H155.6c-13.3,18.9-46.6,32.1-89.2,36.2v0.1H469.2z"/>
	<polygon class="st1" points="164.4,324.6 164.4,301.7 175.5,301.7 175.5,304.6 168.6,304.6 168.6,311.5 174.8,311.5 174.8,314.3 
		168.6,314.3 168.6,321.8 175.5,321.8 175.5,324.6 	"/>
	<rect x="179" y="306.4" class="st1" width="3.4" height="18.2"/>
	<path class="st1" d="M196.9,324.6l-6.9-11.7c-0.6-1-1.1-2-1.1-2h-0.1c0,0,0.1,1,0.1,2.1v11.7h-2.8v-18.2h3.2l6.5,11.1
		c0.6,1,1,1.9,1,1.9h0.1c0,0-0.1-0.9-0.1-1.9v-11h2.8v18.2H196.9z"/>
	<polygon class="st1" points="206.7,308.7 206.7,314.2 211.6,314.2 211.6,316.4 206.7,316.4 206.7,324.6 203.4,324.6 203.4,306.4 
		212.2,306.4 212.2,308.7 	"/>
	<path class="st1" d="M223.9,324.6l-1.4-4.7h-5.9l-1.5,4.7h-3l6-18.2h3.2l6,18.2H223.9z M220.2,311.6c-0.4-1.3-0.5-2.2-0.5-2.2h-0.1
		c0,0-0.1,0.8-0.5,2.2l-2,6.4h4.9L220.2,311.6z"/>
	<path class="st1" d="M235.7,324.9c-4.6,0-7-4.3-7-9.4c0-5,2.4-9.4,7-9.4c1.7,0,2.9,0.4,3.7,1l-0.7,2c-0.5-0.3-1.3-0.6-2.4-0.6
		c-3.1,0-4.2,3.4-4.2,6.9c0,3.5,1.2,6.8,4.2,6.8c1.1,0,1.7-0.2,2.3-0.6l0.8,2.2C238.6,324.5,237.3,324.9,235.7,324.9"/>
	<polygon class="st1" points="251.2,324.6 251.2,316.4 245.5,316.4 245.5,324.6 242.1,324.6 242.1,306.4 245.5,306.4 245.5,314.2 
		251.2,314.2 251.2,306.4 254.6,306.4 254.6,324.6 	"/>
	<polygon class="st1" points="270.5,324.6 270.5,301.7 281.7,301.7 281.7,304.6 274.8,304.6 274.8,311.5 280.9,311.5 280.9,314.3 
		274.8,314.3 274.8,321.8 281.7,321.8 281.7,324.6 	"/>
	<path class="st1" d="M291.5,324.9c-4.6,0-7-4.3-7-9.4c0-5,2.4-9.4,7-9.4c1.7,0,2.9,0.4,3.7,1l-0.7,2c-0.5-0.3-1.3-0.6-2.4-0.6
		c-3.1,0-4.2,3.4-4.2,6.9c0,3.5,1.2,6.8,4.2,6.8c1.1,0,1.7-0.2,2.3-0.6l0.8,2.2C294.4,324.5,293.1,324.9,291.5,324.9"/>
	<polygon class="st1" points="307,324.6 307,316.4 301.3,316.4 301.3,324.6 297.9,324.6 297.9,306.4 301.3,306.4 301.3,314.2 
		307,314.2 307,306.4 310.3,306.4 310.3,324.6 	"/>
	<polygon class="st1" points="319.8,308.7 319.8,324.6 316.4,324.6 316.4,308.7 313,308.7 313,306.4 323.2,306.4 323.2,308.7 	"/>
	<polygon class="st1" points="325.9,324.6 325.9,306.4 334.7,306.4 334.7,308.7 329.2,308.7 329.2,314.2 334.1,314.2 334.1,316.4 
		329.2,316.4 329.2,322.4 334.7,322.4 334.7,324.6 	"/>
	<path class="st1" d="M346.4,324.6l-5.2-8.3h-0.1v8.3h-3.3v-17.4c1.1-0.6,2.9-1,5-1c4.5,0,6.7,2.1,6.7,5.5c0,2.8-2,4.6-4.9,4.8v0.1
		l5.4,8.1H346.4z M342.8,308.1c-0.7,0-1.3,0.1-1.7,0.3v7.1c0.2,0.1,0.7,0.1,1.2,0.1c2.6,0,3.9-1.4,3.9-3.8
		C346.3,309.3,345.3,308.1,342.8,308.1"/>
	<path class="st1" d="M372.3,325c-6.1,0-10-4.2-10-11.9c0-7.3,4.2-11.7,10.1-11.7c2.6,0,4.4,0.5,5.7,1.3l-1.3,2.6
		c-0.7-0.4-2-0.9-4-0.9c-4,0-6.3,2.7-6.3,8.8c0,5.8,2.3,8.8,5.5,8.8c1.2,0,1.9-0.2,2.3-0.4v-7.5h-3.3v-2.6h7.3v12.2
		C377,324.5,375.4,325,372.3,325"/>
	<polygon class="st1" points="382.5,324.6 382.5,306.4 391.4,306.4 391.4,308.7 385.9,308.7 385.9,314.2 390.8,314.2 390.8,316.4 
		385.9,316.4 385.9,322.4 391.4,322.4 391.4,324.6 	"/>
	<path class="st1" d="M405.2,324.6l-6.9-11.7c-0.6-1-1.1-2-1.1-2h-0.1c0,0,0.1,1,0.1,2.1v11.7h-2.8v-18.2h3.2l6.5,11.1
		c0.6,1,1,1.9,1,1.9h0.1c0,0-0.1-0.9-0.1-1.9v-11h2.8v18.2H405.2z"/>
	<path class="st1" d="M417.7,324.9c-3.6,0-6-2.3-6-5.6v-12.9h3.4v12.9c0,2,1.3,3,2.8,3c1.5,0,2.8-1.1,2.8-3v-12.9h3.1v12.9
		C423.7,322.7,421.2,324.9,417.7,324.9"/>
	<path class="st1" d="M431,324.9c-2.2,0-3.5-0.4-4.5-1l0.8-2.4c0.6,0.4,1.7,0.8,3,0.8c1.8,0,2.9-1.1,2.9-2.8c0-1.4-0.8-2.2-2.8-3.1
		c-3-1.2-3.8-3.2-3.8-5c0-2.9,2.1-5.3,5.4-5.3c1.8,0,3.2,0.5,4,1l-0.7,2.1c-0.6-0.4-1.6-0.8-2.8-0.8c-1.7,0-2.6,1-2.6,2.6
		c0,1.6,1.2,2.3,2.8,3c3.6,1.5,4.1,3.5,4.1,5.3C436.8,322.6,434.4,324.9,431,324.9"/>
	<path class="st1" d="M443.6,324.9c-2.2,0-3.5-0.4-4.5-1l0.8-2.4c0.6,0.4,1.7,0.8,3,0.8c1.8,0,2.9-1.1,2.9-2.8
		c0-1.4-0.8-2.2-2.8-3.1c-3-1.2-3.8-3.2-3.8-5c0-2.9,2.1-5.3,5.4-5.3c1.8,0,3.2,0.5,4,1l-0.7,2.1c-0.6-0.4-1.6-0.8-2.8-0.8
		c-1.7,0-2.6,1-2.6,2.6c0,1.6,1.2,2.3,2.8,3c3.6,1.5,4.1,3.5,4.1,5.3C449.4,322.6,446.9,324.9,443.6,324.9"/>
</g>
<g>
	<path class="st1" d="M456.2,318.4h-2.5l-0.7-12h3.8L456.2,318.4z M455,324.8c-1.1,0-1.9-0.9-1.9-2c0-1.1,0.8-1.9,1.9-1.9
		c1.1,0,1.9,0.9,1.9,1.9C456.9,323.9,456.1,324.8,455,324.8"/>
	<path class="st2" d="M63.2,213.7c-15.1-4-31.5-7.1-48.9-8.9c-76.7-8.1-141.6,11.2-145,43s56.1,64.1,132.9,72.2
		c50.4,5.3,95.7-1.2,121.8-15.3c-27.4,8-66,11-108.3,7.1c-79.4-7.4-141.6-36.5-138.7-65c2.8-28.5,69.5-45.7,148.9-38.3
		C38.8,209.6,51.3,211.4,63.2,213.7"/>
	<path class="st3" d="M63.2,213.7c-15.1-4-31.5-7.1-48.9-8.9c-76.7-8.1-141.6,11.2-145,43s56.1,64.1,132.9,72.2
		c50.4,5.3,95.7-1.2,121.8-15.3c-27.4,8-66,11-108.3,7.1c-79.4-7.4-141.6-36.5-138.7-65c2.8-28.5,69.5-45.7,148.9-38.3
		C38.8,209.6,51.3,211.4,63.2,213.7z"/>
	<path class="st4" d="M-59,319.4c9.2,14.2,31.6,25.7,58.8,28.6c27.4,2.9,51.9-3.9,63.8-16c-15.8,6.4-38.4,9.1-62.9,6.5
		C-23.6,335.9-44.9,328.7-59,319.4"/>
	<path class="st2" d="M-59,319.4c9.2,14.2,31.6,25.7,58.8,28.6c27.4,2.9,51.9-3.9,63.8-16c-15.8,6.4-38.4,9.1-62.9,6.5
		C-23.6,335.9-44.9,328.7-59,319.4"/>
</g>
<g>
	<polygon class="st0" points="-68.9,238.6 -39.2,238.6 -39.2,247.4 -58.5,247.4 -58.5,254.1 -39.7,254.1 -39.7,262.9 -58.5,262.9 
		-58.5,279 -68.9,279 	"/>
	<polygon class="st0" points="-42.8,238.6 -31,238.6 -21.1,267.7 -11,238.6 0.8,238.6 -14.5,279 -27.6,279 	"/>
	<polygon class="st0" points="-2.4,270.7 14.8,247.7 -2.4,247.7 -2.4,238.6 28.6,238.6 28.6,246.9 11.3,269.9 29,269.9 29,279 
		-2.4,279 	"/>
	<path class="st2" d="M40.5,258.8c0-12.4,9.2-20.9,20.6-20.9c7.3,0,12.3,3.5,15.5,8l-4.2,2.4c-2.3-3.4-6.5-5.9-11.3-5.9
		c-8.7,0-15.4,6.8-15.4,16.4c0,9.6,6.7,16.4,15.4,16.4c4.8,0,9-2.4,11.3-5.9l4.3,2.4c-3.4,4.6-8.3,8-15.6,8
		C49.7,279.8,40.5,271.3,40.5,258.8"/>
	<path class="st2" d="M101.3,242.4c-9.1,0-14.9,7-14.9,16.4c0,9.4,5.8,16.4,14.9,16.4c9,0,14.9-7,14.9-16.4
		C116.1,249.4,110.3,242.4,101.3,242.4 M101.3,237.9c12,0,20.1,9,20.1,20.9c0,12-8.1,20.9-20.1,20.9c-12,0-20.1-9-20.1-20.9
		C81.2,246.9,89.3,237.9,101.3,237.9"/>
	<polygon class="st2" points="135.1,246.4 135.1,279 130,279 130,238.6 135.2,238.6 158.5,270.5 158.5,238.6 163.5,238.6 163.5,279 
		158.7,279 	"/>
	<polygon class="st2" points="171,238.6 176.7,238.6 190.4,273.5 204,238.6 209.8,238.6 193.5,279 187.2,279 	"/>
	<polygon class="st2" points="217.3,238.6 243.8,238.6 243.8,243 222.3,243 222.3,256.1 243.4,256.1 243.4,260.6 222.3,260.6 
		222.3,274.5 243.8,274.5 243.8,279 217.3,279 	"/>
	<polygon class="st2" points="259.3,246.4 259.3,279 254.2,279 254.2,238.6 259.4,238.6 282.7,270.5 282.7,238.6 287.7,238.6 
		287.7,279 282.9,279 	"/>
	<rect x="300" y="238.6" class="st2" width="5" height="40.5"/>
	<polygon class="st2" points="317.3,238.6 343.8,238.6 343.8,243 322.3,243 322.3,256.1 343.3,256.1 343.3,260.6 322.3,260.6 
		322.3,274.5 343.8,274.5 343.8,279 317.3,279 	"/>
	<polygon class="st2" points="359.2,246.4 359.2,279 354.2,279 354.2,238.6 359.4,238.6 382.7,270.5 382.7,238.6 387.7,238.6 
		387.7,279 382.9,279 	"/>
	<path class="st2" d="M398.1,258.8c0-12.4,9.2-20.9,20.6-20.9c7.3,0,12.3,3.5,15.5,8l-4.2,2.4c-2.3-3.4-6.5-5.9-11.3-5.9
		c-8.7,0-15.4,6.8-15.4,16.4c0,9.6,6.7,16.4,15.4,16.4c4.8,0,9-2.4,11.3-5.9l4.3,2.4c-3.4,4.6-8.3,8-15.6,8
		C407.2,279.8,398.1,271.3,398.1,258.8"/>
	<polygon class="st2" points="442.6,238.6 469.2,238.6 469.2,243 447.7,243 447.7,256.1 468.7,256.1 468.7,260.6 447.7,260.6 
		447.7,274.5 469.2,274.5 469.2,279 442.6,279 	"/>
</g>
</svg>
