<svg xmlns="http://www.w3.org/2000/svg" version="1.0" preserveAspectRatio="xMidYMid meet" viewBox="162.71 1870 11667.29 1120">
<g id="layer101" fill="#ffff" stroke="none">
 <path d="M1380 2956 l0 -35 273 -3 c298 -3 303 -4 332 -64 8 -18 15 -57 15 -88 l0 -57 -32 18 c-29 16 -62 18 -278 18 -268 0 -275 -1 -332 -62 -43 -45 -48 -73 -48 -261 0 -150 3 -183 19 -217 24 -53 65 -92 110 -105 20 -5 137 -10 261 -10 206 0 229 2 265 20 39 20 39 20 80 0 61 -30 75 -27 75 16 0 30 -4 36 -31 46 -28 10 -30 13 -24 42 4 17 9 151 12 298 5 305 -1 359 -49 414 -56 64 -58 64 -368 64 l-280 0 0 -34z m539 -299 c19 -7 44 -25 55 -40 19 -26 21 -42 21 -196 0 -257 8 -251 -308 -251 l-225 0 -31 26 c-45 37 -53 80 -49 244 3 132 5 148 26 177 13 18 38 37 55 42 48 14 415 12 456 -2z"/>
 <path d="M8841 2983 c0 -5 26 -60 58 -123 l59 -115 -159 -317 c-88 -175 -159 -320 -159 -323 0 -3 19 -5 43 -5 l42 1 71 142 c39 78 101 203 139 277 l68 135 138 -278 139 -277 40 0 c22 0 40 3 40 8 0 4 -97 204 -217 444 l-218 438 -42 0 c-24 0 -43 -3 -42 -7z"/>
 <path d="M2490 2741 c-139 -5 -159 -8 -192 -29 -131 -82 -122 -275 16 -341 39 -20 61 -21 309 -21 l267 0 0 -40 c0 -49 -20 -91 -56 -119 -25 -20 -39 -21 -241 -21 l-215 0 -34 34 c-19 19 -34 41 -34 50 0 12 -10 16 -40 16 -22 0 -40 -3 -40 -7 0 -59 66 -141 129 -162 46 -15 426 -15 472 0 19 7 49 23 67 36 60 45 62 55 62 343 l0 260 -35 0 c-24 0 -35 -5 -35 -15 0 -19 -4 -19 -43 1 -38 20 -136 24 -357 15z m338 -101 c43 -26 62 -74 62 -155 l0 -65 -250 0 c-264 0 -295 4 -333 47 -24 28 -32 86 -17 123 7 16 26 38 44 50 29 18 48 20 246 20 198 0 218 -2 248 -20z"/>
 <path d="M3225 2741 c-60 -8 -79 -18 -123 -64 -23 -24 -35 -48 -39 -76 l-6 -41 35 0 c30 0 38 5 48 29 6 16 23 40 37 53 24 23 27 23 255 23 l230 0 29 -33 c34 -38 39 -94 13 -143 -26 -51 -61 -59 -271 -59 -255 -1 -292 -10 -347 -84 -30 -39 -30 -143 0 -183 55 -75 130 -89 409 -81 137 4 155 7 194 29 44 25 87 84 93 129 3 22 -1 25 -34 28 -32 3 -38 0 -43 -21 -4 -14 -20 -38 -36 -53 l-30 -29 -226 0 -225 0 -24 28 c-32 37 -32 87 0 124 l24 28 218 7 c121 4 234 10 252 13 37 7 106 64 128 106 23 46 18 135 -11 186 -46 77 -78 86 -305 89 -107 1 -217 -1 -245 -5z"/>
 <path d="M4845 2741 c-22 -4 -50 -12 -61 -19 -36 -19 -83 -80 -89 -114 -4 -18 -5 -115 -3 -214 3 -178 3 -181 30 -220 54 -78 60 -79 349 -79 l255 0 42 28 c72 47 86 87 90 268 5 176 -8 243 -53 291 -54 58 -71 62 -305 64 -118 2 -233 -1 -255 -5z m454 -84 c67 -23 76 -49 79 -227 4 -177 -4 -212 -57 -243 -25 -15 -60 -17 -254 -17 -212 0 -226 1 -251 21 -50 39 -56 65 -56 232 0 144 2 156 23 188 34 51 67 58 287 58 125 0 207 -4 229 -12z"/>
 <path d="M6525 2741 c-84 -15 -136 -60 -156 -134 -6 -24 -9 -109 -7 -213 l3 -172 30 -44 c18 -25 49 -52 75 -65 42 -22 56 -23 272 -23 249 0 275 5 331 58 51 48 57 78 57 267 0 182 -6 211 -50 268 -45 57 -65 61 -300 63 -118 2 -233 -1 -255 -5z m491 -114 l35 -38 -3 -179 -3 -180 -28 -27 -27 -28 -230 -3 c-326 -4 -320 -9 -320 252 0 162 0 165 26 195 14 17 40 35 57 40 18 6 128 9 245 8 l214 -2 34 -38z"/>
 <path d="M4020 2455 l0 -285 -50 0 -50 0 0 -40 0 -40 50 0 50 0 0 -110 0 -110 40 0 40 0 0 110 0 110 90 0 90 0 0 40 0 40 -90 0 -90 0 0 285 0 285 -40 0 -40 0 0 -285z"/>
 <path d="M4320 2420 l0 -320 40 0 c22 0 40 5 40 11 0 5 10 3 22 -5 15 -11 45 -16 85 -16 l63 0 0 34 c0 32 -1 33 -50 39 -54 7 -94 28 -113 61 -8 15 -11 92 -8 269 l3 247 -41 0 -41 0 0 -320z"/>
 <path d="M5560 2420 l0 -320 35 0 c24 0 35 5 35 14 0 12 6 12 33 -2 27 -14 65 -17 244 -17 l211 0 43 30 c68 48 78 78 85 251 4 82 4 197 -1 257 l-7 107 -34 0 -34 0 0 -230 c0 -251 -5 -279 -55 -318 -26 -21 -38 -22 -209 -22 -279 0 -276 -4 -276 340 l0 230 -35 0 -35 0 0 -320z"/>
 <path d="M7220 2420 l0 -320 40 0 c28 0 40 4 40 14 0 12 6 12 33 -2 26 -14 69 -18 226 -20 191 -3 194 -3 246 23 29 14 56 32 59 41 5 12 13 10 43 -14 60 -46 91 -52 287 -52 155 0 187 3 221 19 47 22 89 64 104 104 7 17 11 126 11 278 l0 249 -40 0 -40 0 0 -250 0 -250 -29 -32 -29 -33 -189 -3 c-289 -5 -283 -13 -283 332 l0 236 -40 0 -40 0 0 -230 c0 -252 -5 -279 -56 -319 -27 -21 -34 -22 -221 -19 l-193 3 -32 33 -33 32 -3 250 -3 250 -39 0 -40 0 0 -320z"/>
 </g>
<g id="layer102" fill="#04b1f0" stroke="none">
 <path d="M495 2876 c-172 -56 -295 -193 -326 -361 -34 -183 73 -387 246 -470 95 -46 187 -61 277 -46 137 23 248 93 319 204 49 76 69 146 69 246 0 70 -4 87 -26 122 -56 89 -180 104 -256 32 l-26 -25 -34 25 c-73 54 -148 60 -229 20 -143 -73 -154 -254 -21 -347 58 -41 149 -48 210 -17 42 21 42 21 42 1 0 -16 7 -20 35 -20 l35 0 0 124 c0 140 10 180 51 201 46 24 108 15 131 -19 33 -48 26 -177 -13 -263 -68 -149 -251 -244 -416 -216 -304 52 -434 399 -234 624 58 65 124 103 216 124 86 20 169 8 259 -36 47 -24 71 -29 110 -27 l51 3 -63 42 c-98 65 -162 86 -272 89 -59 2 -110 -2 -135 -10z m175 -311 c75 -39 95 -140 41 -206 -57 -69 -151 -71 -210 -4 -35 41 -46 73 -36 113 22 91 124 139 205 97z"/>
 <path d="M9322 2788 c3 -31 6 -33 46 -36 l42 -3 0 35 c0 36 0 36 -46 36 -45 0 -45 0 -42 -32z"/>
 <path d="M9661 2798 c-81 -207 -123 -312 -140 -355 l-21 -53 29 0 c28 0 31 5 99 176 l70 176 68 -176 c69 -175 69 -176 100 -176 31 0 31 1 93 163 35 89 66 168 70 175 4 7 36 -63 76 -163 67 -171 69 -175 98 -175 19 0 27 4 24 13 -3 6 -33 82 -67 167 -33 85 -69 175 -79 200 -15 39 -21 45 -47 45 -28 0 -30 -5 -99 -176 l-70 -176 -70 179 c-67 171 -71 178 -98 178 -19 0 -30 -7 -36 -22z"/>
 <path d="M10425 2810 c-17 -5 -44 -23 -60 -40 -29 -31 -30 -34 -34 -150 -3 -106 -1 -124 18 -164 32 -64 55 -71 246 -71 175 0 195 5 232 62 26 39 26 253 0 300 -33 61 -54 68 -222 70 -82 1 -164 -2 -180 -7z m340 -75 c24 -23 25 -30 25 -136 0 -102 -2 -115 -22 -136 -21 -22 -27 -23 -179 -23 -204 0 -203 -1 -207 135 -4 109 0 137 28 165 18 18 34 20 175 20 152 0 156 -1 180 -25z"/>
 <path d="M10910 2605 l0 -215 38 0 c20 0 58 -2 85 -6 46 -6 47 -5 47 20 0 21 -5 26 -25 26 -36 0 -71 19 -84 47 -7 14 -11 88 -11 183 l0 160 -25 0 -25 0 0 -215z"/>
 <path d="M11170 2525 l0 -295 30 0 30 0 0 295 0 295 -30 0 -30 0 0 -295z"/>
 <path d="M11405 2806 c-26 -7 -47 -23 -62 -45 -21 -31 -23 -46 -23 -158 0 -205 15 -217 255 -218 112 0 167 4 183 13 l22 13 0 -91 c0 -89 0 -90 25 -90 l25 0 0 295 0 295 -25 0 c-15 0 -25 -6 -25 -14 0 -12 -6 -12 -37 0 -48 17 -282 17 -338 0z m346 -65 c23 -18 24 -25 24 -141 0 -165 6 -160 -202 -160 -150 0 -155 1 -178 25 -24 23 -25 31 -25 135 0 104 1 112 25 135 23 24 28 25 178 25 138 0 157 -2 178 -19z"/>
 </g>

</svg>