<svg version="1.2" baseProfile="tiny-ps" xmlns="http://www.w3.org/2000/svg" viewBox="0 0 839 283" width="839" height="283"><title>KRAUSS Logo Blau-svg</title><style>tspan { white-space:pre }.s0 { fill: #009def } .s1 { fill: #373635 } </style><g ><g ><g ><path class="s0" d="m0.54 282.39v-41.13h5.44v41.13h-5.44z" /><path class="s0" d="m16.54 282.39v-41.13h5.05v14.76c2.36-2.73 5.33-4.09 8.92-4.09c2.21 0 4.12 0.43 5.75 1.3c1.63 0.87 2.79 2.07 3.49 3.61c0.7 1.53 1.05 3.76 1.05 6.68v18.88h-5.05v-18.88c0-2.53-0.55-4.37-1.64-5.51c-1.1-1.15-2.64-1.73-4.64-1.73c-1.5 0-2.9 0.39-4.22 1.17c-1.32 0.78-2.26 1.83-2.82 3.16c-0.56 1.33-0.84 3.16-0.84 5.5v16.3h-5.05v-0.02z" /><path class="s0" d="m50.05 282.39v-29.8h4.55v4.52c1.16-2.12 2.23-3.51 3.21-4.18c0.98-0.67 2.06-1.01 3.24-1.01c1.7 0 3.43 0.54 5.19 1.63l-1.74 4.69c-1.24-0.73-2.47-1.09-3.7-1.09c-1.1 0-2.09 0.33-2.97 1c-0.88 0.67-1.51 1.59-1.88 2.76c-0.56 1.79-0.84 3.76-0.84 5.89v15.6h-5.05l-0.01-0.01z" /><path class="s0" d="m88.85 282.39v-41.13h5.44v20.4l20.43-20.4h7.38l-17.26 16.67l18.01 24.47h-7.18l-14.65-20.82l-6.74 6.56v14.25h-5.44h0.01z" /><path fill-rule="evenodd" class="s0" d="m126.49 267.49c0-5.52 1.53-9.6 4.6-12.26c2.56-2.21 5.69-3.31 9.37-3.31c4.1 0 7.45 1.34 10.05 4.03c2.6 2.68 3.9 6.39 3.9 11.13c0 3.83-0.58 6.85-1.73 9.05c-1.15 2.2-2.82 3.91-5.02 5.12c-2.2 1.22-4.6 1.82-7.2 1.82c-4.17 0-7.54-1.34-10.12-4.01c-2.57-2.67-3.86-6.53-3.86-11.56l0.01-0.01zm5.19 0c0 3.82 0.83 6.67 2.5 8.57c1.66 1.9 3.76 2.85 6.29 2.85c2.51 0 4.59-0.95 6.26-2.86c1.66-1.91 2.5-4.81 2.5-8.72c0-3.69-0.84-6.48-2.51-8.38c-1.67-1.9-3.76-2.85-6.24-2.85c-2.52 0-4.62 0.94-6.29 2.83c-1.66 1.89-2.5 4.74-2.5 8.56l-0.01 0z" /><path class="s0" d="m161.94 282.39v-29.8h4.55v4.24c2.19-3.27 5.35-4.91 9.48-4.91c1.8 0 3.45 0.32 4.95 0.97c1.51 0.64 2.63 1.49 3.38 2.54c0.75 1.05 1.27 2.29 1.57 3.73c0.19 0.94 0.28 2.57 0.28 4.91v18.32h-5.05v-18.13c0-2.06-0.2-3.6-0.59-4.62c-0.39-1.02-1.09-1.83-2.09-2.44c-1-0.61-2.17-0.91-3.52-0.91c-2.15 0-4.01 0.68-5.57 2.05c-1.56 1.37-2.34 3.96-2.34 7.77v16.27h-5.05l0 0.01z" /><path class="s0" d="m206.53 277.87l0.73 4.46c-1.42 0.3-2.69 0.45-3.82 0.45c-1.83 0-3.26-0.29-4.26-0.87c-1.01-0.58-1.72-1.34-2.13-2.29c-0.41-0.94-0.62-2.93-0.62-5.96v-17.14h-3.7v-3.93h3.7v-7.38l5.02-3.03v10.41h5.08v3.93h-5.08v17.42c0 1.44 0.09 2.37 0.27 2.78c0.18 0.41 0.47 0.74 0.87 0.98c0.4 0.24 0.98 0.36 1.73 0.36c0.56 0 1.3-0.07 2.22-0.2l-0.01 0.01z" /><path fill-rule="evenodd" class="s0" d="m232.52 278.71c-1.87 1.59-3.67 2.71-5.4 3.37c-1.73 0.66-3.59 0.98-5.57 0.98c-3.27 0-5.79-0.8-7.55-2.4c-1.76-1.6-2.64-3.64-2.64-6.13c0-1.46 0.33-2.79 1-4c0.66-1.21 1.53-2.18 2.61-2.9c1.08-0.73 2.29-1.28 3.63-1.66c0.99-0.26 2.49-0.51 4.49-0.76c4.08-0.49 7.08-1.06 9.01-1.74c0.02-0.69 0.03-1.13 0.03-1.32c0-2.06-0.48-3.51-1.43-4.35c-1.29-1.14-3.21-1.71-5.75-1.71c-2.38 0-4.13 0.42-5.26 1.25c-1.13 0.83-1.97 2.3-2.51 4.42l-4.94-0.67c0.45-2.11 1.19-3.82 2.22-5.12c1.03-1.3 2.52-2.3 4.46-3c1.95-0.7 4.2-1.05 6.76-1.05c2.54 0 4.61 0.3 6.2 0.9c1.59 0.6 2.76 1.35 3.51 2.26c0.75 0.91 1.27 2.05 1.57 3.44c0.17 0.86 0.25 2.41 0.25 4.66v6.73c0 4.69 0.11 7.66 0.32 8.91c0.21 1.24 0.64 2.44 1.28 3.58h-5.27c-0.52-1.05-0.86-2.27-1.01-3.68l-0.01-0.01zm-0.42-11.28c-1.83 0.75-4.58 1.38-8.25 1.91c-2.08 0.3-3.54 0.64-4.4 1.01c-0.86 0.37-1.53 0.92-1.99 1.64c-0.47 0.72-0.7 1.52-0.7 2.4c0 1.35 0.51 2.47 1.53 3.37c1.02 0.9 2.51 1.35 4.48 1.35c1.95 0 3.68-0.42 5.19-1.28c1.52-0.85 2.63-2.01 3.34-3.49c0.54-1.14 0.81-2.83 0.81-5.05v-1.85l-0.01-0.01z" /><path class="s0" d="m246.67 282.39v-41.13h5.05v23.46l11.95-12.12h6.54l-11.39 11.06l12.54 18.74h-6.23l-9.85-15.24l-3.56 3.42v11.81h-5.05h0z" /><path class="s0" d="m288.02 277.87l0.73 4.46c-1.42 0.3-2.69 0.45-3.82 0.45c-1.83 0-3.26-0.29-4.27-0.87c-1.01-0.58-1.72-1.34-2.13-2.29c-0.41-0.94-0.62-2.93-0.62-5.96v-17.14h-3.7v-3.93h3.7v-7.38l5.02-3.03v10.41h5.08v3.93h-5.08v17.42c0 1.44 0.09 2.37 0.27 2.78c0.18 0.41 0.47 0.74 0.87 0.98c0.4 0.24 0.98 0.36 1.73 0.36c0.56 0 1.3-0.07 2.22-0.2l0 0.01z" /><path class="s0" d="m313.34 282.39v-25.87h-4.46v-3.93h4.46v-3.17c0-2 0.18-3.49 0.53-4.46c0.49-1.31 1.34-2.37 2.57-3.18c1.22-0.82 2.94-1.22 5.15-1.22c1.42 0 2.99 0.17 4.71 0.5l-0.76 4.41c-1.05-0.19-2.04-0.28-2.98-0.28c-1.53 0-2.62 0.33-3.25 0.98c-0.64 0.65-0.96 1.88-0.96 3.67v2.75h5.81v3.93h-5.81v25.87h-5.02l0.01 0z" /><path class="s0" d="m349.24 282.39v-4.38c-2.32 3.37-5.47 5.05-9.45 5.05c-1.76 0-3.4-0.34-4.92-1.01c-1.52-0.67-2.66-1.52-3.4-2.54c-0.74-1.02-1.26-2.27-1.56-3.75c-0.21-0.99-0.31-2.56-0.31-4.72v-18.46h5.05v16.53c0 2.64 0.1 4.41 0.31 5.33c0.32 1.33 0.99 2.37 2.02 3.13c1.03 0.76 2.3 1.14 3.82 1.14c1.51 0 2.94-0.39 4.27-1.16c1.33-0.78 2.27-1.83 2.82-3.17c0.55-1.34 0.83-3.28 0.83-5.82v-15.96h5.05v29.8h-4.52l-0.01-0.01zm-15.43-35.63v-5.75h5.28v5.75h-5.28zm10.46 0v-5.75h5.28v5.75h-5.28z" /><path class="s0" d="m363.22 282.39v-29.8h4.55v4.52c1.16-2.12 2.23-3.51 3.21-4.18c0.98-0.67 2.06-1.01 3.24-1.01c1.7 0 3.43 0.54 5.19 1.63l-1.74 4.69c-1.24-0.73-2.47-1.09-3.7-1.09c-1.1 0-2.1 0.33-2.98 1c-0.88 0.67-1.5 1.59-1.88 2.76c-0.56 1.79-0.84 3.76-0.84 5.89v15.6h-5.05v-0.01z" /><path class="s0" d="m401.6 282.39v-29.8h4.52v4.18c0.93-1.46 2.18-2.63 3.73-3.52c1.55-0.89 3.32-1.33 5.3-1.33c2.21 0 4.02 0.46 5.43 1.37c1.41 0.92 2.41 2.2 2.99 3.84c2.36-3.48 5.42-5.22 9.2-5.22c2.96 0 5.23 0.82 6.82 2.45c1.59 1.64 2.38 4.16 2.38 7.56v20.46h-5.02v-18.77c0-2.02-0.16-3.48-0.49-4.37c-0.33-0.89-0.92-1.6-1.78-2.14c-0.86-0.54-1.87-0.81-3.03-0.81c-2.09 0-3.83 0.7-5.22 2.09c-1.38 1.39-2.08 3.62-2.08 6.69v17.31h-5.05v-19.36c0-2.24-0.41-3.93-1.23-5.05c-0.82-1.12-2.17-1.68-4.04-1.68c-1.42 0-2.74 0.37-3.94 1.12c-1.21 0.75-2.08 1.84-2.62 3.28c-0.54 1.44-0.81 3.52-0.81 6.23v15.46h-5.05l-0.01 0.01z" /><path fill-rule="evenodd" class="s0" d="m471.48 272.79l5.22 0.64c-0.82 3.05-2.35 5.42-4.58 7.1c-2.22 1.68-5.07 2.52-8.53 2.52c-4.36 0-7.82-1.34-10.37-4.03c-2.55-2.68-3.83-6.45-3.83-11.29c0-5.01 1.29-8.9 3.87-11.67c2.58-2.77 5.93-4.15 10.05-4.15c3.98 0 7.24 1.36 9.76 4.07c2.53 2.71 3.79 6.53 3.79 11.45c0 0.3-0.01 0.75-0.03 1.35h-22.22c0.19 3.27 1.11 5.78 2.78 7.52c1.67 1.74 3.74 2.61 6.23 2.61c1.85 0 3.43-0.49 4.74-1.46c1.31-0.97 2.35-2.52 3.11-4.66h0.01zm0.06-8.17c-0.22-2.51-0.86-4.39-1.91-5.64c-1.61-1.95-3.69-2.92-6.26-2.92c-2.32 0-4.27 0.78-5.85 2.33c-1.58 1.55-2.45 3.63-2.62 6.23h16.64z" /><path class="s0" d="m484.65 282.39v-41.13h5.05v14.76c2.36-2.73 5.33-4.09 8.92-4.09c2.21 0 4.12 0.43 5.75 1.3c1.63 0.87 2.79 2.07 3.49 3.61c0.7 1.53 1.05 3.76 1.05 6.68v18.88h-5.05v-18.88c0-2.53-0.55-4.37-1.64-5.51c-1.09-1.15-2.64-1.73-4.64-1.73c-1.5 0-2.9 0.39-4.22 1.17c-1.32 0.78-2.26 1.83-2.82 3.16c-0.56 1.33-0.84 3.16-0.84 5.5v16.3h-5.05l0-0.02z" /><path class="s0" d="m518.16 282.39v-29.8h4.55v4.52c1.16-2.12 2.23-3.51 3.21-4.18c0.98-0.67 2.06-1.01 3.24-1.01c1.7 0 3.43 0.54 5.19 1.63l-1.74 4.69c-1.24-0.73-2.47-1.09-3.71-1.09c-1.1 0-2.1 0.33-2.97 1c-0.88 0.67-1.51 1.59-1.88 2.76c-0.56 1.79-0.84 3.76-0.84 5.89v15.6h-5.05v-0.01z" /><path class="s0" d="m564.36 282.39l-10.92-41.13h5.58l6.26 26.96c0.67 2.83 1.25 5.63 1.74 8.42c1.05-4.4 1.66-6.93 1.85-7.6l7.83-27.78h6.57l5.89 20.82c1.48 5.16 2.54 10.02 3.2 14.56c0.52-2.6 1.2-5.59 2.05-8.95l6.45-26.43h5.47l-11.28 41.13h-5.25l-8.67-31.34c-0.73-2.62-1.16-4.23-1.29-4.83c-0.43 1.89-0.83 3.5-1.21 4.83l-8.72 31.34h-5.56h0.01z" /><path fill-rule="evenodd" class="s0" d="m629.7 278.71c-1.87 1.59-3.67 2.71-5.4 3.37c-1.73 0.66-3.59 0.98-5.57 0.98c-3.27 0-5.79-0.8-7.54-2.4c-1.76-1.6-2.64-3.64-2.64-6.13c0-1.46 0.33-2.79 0.99-4c0.67-1.21 1.54-2.18 2.61-2.9c1.08-0.73 2.29-1.28 3.63-1.66c0.99-0.26 2.49-0.51 4.49-0.76c4.08-0.49 7.08-1.06 9.01-1.74c0.02-0.69 0.03-1.13 0.03-1.32c0-2.06-0.48-3.51-1.43-4.35c-1.29-1.14-3.21-1.71-5.75-1.71c-2.38 0-4.13 0.42-5.26 1.25c-1.13 0.83-1.97 2.3-2.51 4.42l-4.94-0.67c0.45-2.11 1.19-3.82 2.22-5.12c1.03-1.3 2.52-2.3 4.46-3c1.95-0.7 4.2-1.05 6.76-1.05c2.54 0 4.61 0.3 6.2 0.9c1.59 0.6 2.76 1.35 3.51 2.26c0.75 0.91 1.27 2.05 1.57 3.44c0.17 0.86 0.25 2.41 0.25 4.66v6.73c0 4.69 0.11 7.66 0.32 8.91c0.21 1.24 0.64 2.44 1.28 3.58h-5.28c-0.52-1.05-0.86-2.27-1.01-3.68l0-0.01zm-0.42-11.28c-1.83 0.75-4.59 1.38-8.25 1.91c-2.08 0.3-3.54 0.64-4.4 1.01c-0.86 0.37-1.52 0.92-1.99 1.64c-0.47 0.72-0.7 1.52-0.7 2.4c0 1.35 0.51 2.47 1.53 3.37c1.02 0.9 2.51 1.35 4.47 1.35c1.95 0 3.68-0.42 5.19-1.28c1.52-0.85 2.63-2.01 3.34-3.49c0.54-1.14 0.81-2.83 0.81-5.05v-1.86z" /><path class="s0" d="m663.27 271.47l4.96 0.64c-0.54 3.42-1.93 6.1-4.17 8.04c-2.24 1.94-4.98 2.9-8.24 2.9c-4.08 0-7.36-1.33-9.83-4c-2.48-2.66-3.72-6.49-3.72-11.46c0-3.22 0.53-6.03 1.6-8.45c1.07-2.41 2.69-4.22 4.87-5.43c2.18-1.21 4.55-1.81 7.11-1.81c3.24 0 5.88 0.82 7.94 2.45c2.06 1.64 3.38 3.96 3.96 6.97l-4.91 0.76c-0.47-2-1.3-3.51-2.48-4.52c-1.19-1.01-2.63-1.51-4.31-1.51c-2.54 0-4.61 0.91-6.2 2.74c-1.59 1.82-2.38 4.71-2.38 8.66c0 4 0.77 6.91 2.3 8.73c1.53 1.81 3.54 2.72 6 2.72c1.98 0 3.64-0.61 4.97-1.82c1.33-1.22 2.17-3.08 2.53-5.61l0 0z" /><path class="s0" d="m674.16 282.39v-41.13h5.05v14.76c2.36-2.73 5.33-4.09 8.92-4.09c2.21 0 4.12 0.43 5.75 1.3c1.63 0.87 2.79 2.07 3.49 3.61c0.7 1.53 1.05 3.76 1.05 6.68v18.88h-5.05v-18.88c0-2.53-0.55-4.37-1.64-5.51c-1.09-1.15-2.64-1.73-4.64-1.73c-1.5 0-2.9 0.39-4.22 1.17c-1.32 0.78-2.26 1.83-2.82 3.16c-0.56 1.33-0.84 3.16-0.84 5.5v16.3h-5.05l0-0.02z" /><path class="s0" d="m705.71 273.5l4.99-0.79c0.28 2 1.06 3.53 2.34 4.6c1.28 1.07 3.07 1.6 5.37 1.6c2.32 0 4.04-0.47 5.16-1.42c1.12-0.95 1.69-2.05 1.69-3.33c0-1.14-0.5-2.04-1.49-2.69c-0.69-0.45-2.41-1.02-5.16-1.71c-3.7-0.93-6.27-1.74-7.7-2.43c-1.43-0.68-2.52-1.63-3.26-2.83c-0.74-1.21-1.11-2.54-1.11-4c0-1.33 0.3-2.56 0.91-3.69c0.61-1.13 1.44-2.07 2.48-2.82c0.79-0.58 1.86-1.07 3.21-1.47c1.36-0.4 2.81-0.6 4.36-0.6c2.34 0 4.39 0.34 6.16 1.01c1.77 0.67 3.07 1.59 3.91 2.74c0.84 1.15 1.42 2.69 1.74 4.62l-4.94 0.67c-0.22-1.53-0.87-2.73-1.95-3.59c-1.08-0.86-2.6-1.29-4.56-1.29c-2.32 0-3.97 0.38-4.97 1.15c-0.99 0.77-1.49 1.66-1.49 2.69c0 0.66 0.21 1.25 0.62 1.77c0.41 0.54 1.06 0.99 1.94 1.35c0.5 0.19 1.99 0.62 4.46 1.29c3.57 0.95 6.07 1.74 7.48 2.34c1.41 0.61 2.52 1.49 3.33 2.65c0.8 1.16 1.2 2.6 1.2 4.32c0 1.68-0.49 3.27-1.47 4.76c-0.98 1.49-2.4 2.64-4.25 3.45c-1.85 0.81-3.95 1.22-6.28 1.22c-3.87 0-6.82-0.8-8.85-2.41c-2.03-1.61-3.32-4-3.89-7.16h0.02z" /><path class="s0" d="m749.1 277.87l0.73 4.46c-1.42 0.3-2.69 0.45-3.82 0.45c-1.83 0-3.26-0.29-4.27-0.87c-1.01-0.58-1.72-1.34-2.13-2.29c-0.41-0.94-0.62-2.93-0.62-5.96v-17.14h-3.71v-3.93h3.71v-7.38l5.02-3.03v10.41h5.08v3.93h-5.08v17.42c0 1.44 0.09 2.37 0.27 2.78c0.18 0.41 0.47 0.74 0.87 0.98c0.4 0.24 0.98 0.36 1.73 0.36c0.56 0 1.3-0.07 2.22-0.2v0.01z" /><path class="s0" d="m775.17 282.39v-4.38c-2.32 3.37-5.47 5.05-9.45 5.05c-1.76 0-3.4-0.34-4.92-1.01c-1.53-0.67-2.66-1.52-3.4-2.54c-0.74-1.02-1.26-2.27-1.56-3.75c-0.21-0.99-0.31-2.56-0.31-4.72v-18.46h5.05v16.53c0 2.64 0.1 4.41 0.31 5.33c0.32 1.33 0.99 2.37 2.02 3.13c1.03 0.76 2.3 1.14 3.82 1.14c1.52 0 2.94-0.39 4.27-1.16c1.33-0.78 2.27-1.83 2.82-3.17c0.55-1.34 0.83-3.28 0.83-5.82v-15.96h5.05v29.8h-4.52l-0.01-0.01z" /><path class="s0" d="m789.21 282.39v-29.8h4.52v4.18c0.94-1.46 2.18-2.63 3.73-3.52c1.55-0.89 3.32-1.33 5.3-1.33c2.21 0 4.02 0.46 5.43 1.37c1.41 0.92 2.41 2.2 2.99 3.84c2.36-3.48 5.42-5.22 9.2-5.22c2.95 0 5.23 0.82 6.82 2.45c1.59 1.64 2.38 4.16 2.38 7.56v20.46h-5.02v-18.77c0-2.02-0.16-3.48-0.49-4.37c-0.33-0.89-0.92-1.6-1.78-2.14c-0.86-0.54-1.87-0.81-3.03-0.81c-2.09 0-3.83 0.7-5.22 2.09c-1.38 1.39-2.08 3.62-2.08 6.69v17.31h-5.05v-19.36c0-2.24-0.41-3.93-1.23-5.05c-0.82-1.12-2.17-1.68-4.04-1.68c-1.42 0-2.74 0.37-3.94 1.12c-1.2 0.75-2.08 1.84-2.62 3.28c-0.54 1.44-0.81 3.52-0.81 6.23v15.46h-5.05l-0.01 0.01z" /></g><path class="s1" d="m680.33 76.13c-4.1-11.91-11.7-16.63-24.23-16.63c-8.83 0-19.51 2.26-19.51 13.14c0 10.27 12.32 12.73 20.33 14.17c11.5 2.47 26.9 5.34 36.76 11.91c11.5 7.6 18.48 19.3 18.48 33.26c0 13.76-6.57 26.9-17.45 35.32c-11.3 8.83-26.7 11.5-40.87 11.5c-26.49 0-50.51-11.5-56.88-39.02l30.39-6.98c4.11 14.78 14.79 19.92 29.37 19.92c9.45 0 21.97-3.49 21.97-15.2c0-11.7-16.02-13.96-24.64-15.81c-25.05-5.13-49.7-12.53-49.7-43.33c0-13.15 5.13-24.64 15.2-33.06c10.27-8.62 22.38-11.5 35.32-11.5c24.64 0 44.77 8.62 53.39 33.06l-27.93 9.24l0 0.01z" /><path class="s1" d="m35.27 103.02l44.15-66.33h31.62l-33.88 50.31l42.3 90.56h-36.35l-27.93-60.99l-19.92 28.54v32.45h-32.04v-140.87h32.04v66.33h0.01z" /><path fill-rule="evenodd" class="s1" d="m460.87 177.56h-35.53l-8.62-28.96h-45.59l-8.83 28.96h-28.95l45.17-140.87h38.2l44.15 140.87zm-66.73-104.32l-14.99 49.49h29.98l-14.99-49.49z" /><path class="s1" d="m586.74 121.91c0 15.4 0.21 31.42-11.5 42.92c-11.29 11.3-27.93 14.79-43.33 14.79c-14.78 0-31.83-2.26-43.12-12.12c-13.96-12.12-14.58-28.34-14.58-45.59v-85.22h35.73v85.22c0 6.57-0.21 16.02 3.08 21.77c4.31 7.39 13.14 9.45 21.15 9.45c6.57 0 16.22-2.05 20.33-7.6c4.52-6.37 3.9-16.23 3.9-23.62v-85.22h28.34v85.22v0z" /><path class="s1" d="m806.38 76.13c-4.11-11.91-11.7-16.63-24.23-16.63c-8.83 0-19.51 2.26-19.51 13.14c0 10.27 12.32 12.73 20.33 14.17c11.5 2.47 26.9 5.34 36.76 11.91c11.5 7.6 18.48 19.3 18.48 33.26c0 13.76-6.57 26.9-17.45 35.32c-11.3 8.83-26.7 11.5-40.87 11.5c-26.49 0-50.51-11.5-56.88-39.02l30.39-6.98c4.11 14.78 14.79 19.92 29.37 19.92c9.45 0 21.97-3.49 21.97-15.2c0-11.7-16.02-13.96-24.64-15.81c-25.05-5.13-49.7-12.53-49.7-43.33c0-13.15 5.14-24.64 15.2-33.06c10.27-8.62 22.38-11.5 35.32-11.5c24.64 0 44.77 8.62 53.39 33.06l-27.93 9.24l0 0.01z" /><path fill-rule="evenodd" class="s0" d="m204.34 177.56h-32.86v-140.87h59.35c12.53 0 25.26 0.21 36.14 7.19c11.5 7.6 17.87 21.36 17.87 35.11c0 16.02-9.24 30.8-24.44 36.34l26.08 62.22h-36.55l-21.56-55.65h-24.02v55.65l-0.01 0.01zm0-79.88h18.07c6.78 0 14.17 0.61 20.12-2.87c5.34-3.29 8.22-9.86 8.22-16.02c0-5.54-3.29-11.5-8.01-14.38c-5.54-3.49-14.99-2.67-21.15-2.67h-17.25v35.94z" /><path fill-rule="evenodd" class="s0" d="m121.41 109.34c0-60.2 46.93-109.18 104.62-109.18c57.69 0 104.62 48.98 104.62 109.18c0 60.2-46.93 109.18-104.62 109.18c-57.69 0-104.62-48.98-104.62-109.18zm14.26 0.01c0 52.34 40.54 94.92 90.36 94.92c49.83 0 90.36-42.58 90.36-94.92c0-52.34-40.54-94.92-90.36-94.92c-49.83 0-90.36 42.58-90.36 94.92z" /></g></g></svg>