<svg xmlns="http://www.w3.org/2000/svg" version="1.2" baseProfile="tiny-ps" viewBox="3.22 0.16 834.99 218.36"><title>KRAUSS Logo Blau-svg</title><style>tspan { white-space:pre }.s0 { fill: #009def } .s1 { fill: #373635 } </style><g><g><path class="s1" d="m680.33 76.13c-4.1-11.91-11.7-16.63-24.23-16.63c-8.83 0-19.51 2.26-19.51 13.14c0 10.27 12.32 12.73 20.33 14.17c11.5 2.47 26.9 5.34 36.76 11.91c11.5 7.6 18.48 19.3 18.48 33.26c0 13.76-6.57 26.9-17.45 35.32c-11.3 8.83-26.7 11.5-40.87 11.5c-26.49 0-50.51-11.5-56.88-39.02l30.39-6.98c4.11 14.78 14.79 19.92 29.37 19.92c9.45 0 21.97-3.49 21.97-15.2c0-11.7-16.02-13.96-24.64-15.81c-25.05-5.13-49.7-12.53-49.7-43.33c0-13.15 5.13-24.64 15.2-33.06c10.27-8.62 22.38-11.5 35.32-11.5c24.64 0 44.77 8.62 53.39 33.06l-27.93 9.24l0 0.01z"/><path class="s1" d="m35.27 103.02l44.15-66.33h31.62l-33.88 50.31l42.3 90.56h-36.35l-27.93-60.99l-19.92 28.54v32.45h-32.04v-140.87h32.04v66.33h0.01z"/><path fill-rule="evenodd" class="s1" d="m460.87 177.56h-35.53l-8.62-28.96h-45.59l-8.83 28.96h-28.95l45.17-140.87h38.2l44.15 140.87zm-66.73-104.32l-14.99 49.49h29.98l-14.99-49.49z"/><path class="s1" d="m586.74 121.91c0 15.4 0.21 31.42-11.5 42.92c-11.29 11.3-27.93 14.79-43.33 14.79c-14.78 0-31.83-2.26-43.12-12.12c-13.96-12.12-14.58-28.34-14.58-45.59v-85.22h35.73v85.22c0 6.57-0.21 16.02 3.08 21.77c4.31 7.39 13.14 9.45 21.15 9.45c6.57 0 16.22-2.05 20.33-7.6c4.52-6.37 3.9-16.23 3.9-23.62v-85.22h28.34v85.22v0z"/><path class="s1" d="m806.38 76.13c-4.11-11.91-11.7-16.63-24.23-16.63c-8.83 0-19.51 2.26-19.51 13.14c0 10.27 12.32 12.73 20.33 14.17c11.5 2.47 26.9 5.34 36.76 11.91c11.5 7.6 18.48 19.3 18.48 33.26c0 13.76-6.57 26.9-17.45 35.32c-11.3 8.83-26.7 11.5-40.87 11.5c-26.49 0-50.51-11.5-56.88-39.02l30.39-6.98c4.11 14.78 14.79 19.92 29.37 19.92c9.45 0 21.97-3.49 21.97-15.2c0-11.7-16.02-13.96-24.64-15.81c-25.05-5.13-49.7-12.53-49.7-43.33c0-13.15 5.14-24.64 15.2-33.06c10.27-8.62 22.38-11.5 35.32-11.5c24.64 0 44.77 8.62 53.39 33.06l-27.93 9.24l0 0.01z"/><path fill-rule="evenodd" class="s0" d="m204.34 177.56h-32.86v-140.87h59.35c12.53 0 25.26 0.21 36.14 7.19c11.5 7.6 17.87 21.36 17.87 35.11c0 16.02-9.24 30.8-24.44 36.34l26.08 62.22h-36.55l-21.56-55.65h-24.02v55.65l-0.01 0.01zm0-79.88h18.07c6.78 0 14.17 0.61 20.12-2.87c5.34-3.29 8.22-9.86 8.22-16.02c0-5.54-3.29-11.5-8.01-14.38c-5.54-3.49-14.99-2.67-21.15-2.67h-17.25v35.94z"/><path fill-rule="evenodd" class="s0" d="m121.41 109.34c0-60.2 46.93-109.18 104.62-109.18c57.69 0 104.62 48.98 104.62 109.18c0 60.2-46.93 109.18-104.62 109.18c-57.69 0-104.62-48.98-104.62-109.18zm14.26 0.01c0 52.34 40.54 94.92 90.36 94.92c49.83 0 90.36-42.58 90.36-94.92c0-52.34-40.54-94.92-90.36-94.92c-49.83 0-90.36 42.58-90.36 94.92z"/></g></g></svg>